<svg xmlns="http://www.w3.org/2000/svg" width="24" height="24" viewBox="0 0 24 24">
  <rect x="1" y="1" width="22" height="22" rx="6" ry="6" fill="#E9D5FF" />
  <g fill="none" stroke="#5B5F71" stroke-width="1.8" stroke-linecap="round" stroke-linejoin="round">
    
  <path d="M7 12h10v4.5a1.5 1.5 0 0 1-1.5 1.5H8.5A1.5 1.5 0 0 1 7 16.5V12z" fill="#E9D5FF" />
  <path d="M8 12c-.6-2 1.1-3.5 3.2-3.2C12.1 7.9 13.9 8 14.8 8.8 15.9 7.8 18.2 8.6 18 11" fill="none" />
  <path d="M9 12v2m6-2v2" />

  </g>
  
  <g opacity="0.9">
    <path d="M18 6 l1.2-0.4 l0.4-1.2 l0.4 1.2 L21.2 6 l-1.2 0.4 l-0.4 1.2 l-0.4-1.2 z"
      fill="#F7D1DC"/>
  </g>

</svg>