<svg xmlns="http://www.w3.org/2000/svg" width="24" height="24" viewBox="0 0 24 24">
  <rect x="1" y="1" width="22" height="22" rx="6" ry="6" fill="#C9E4DE" />
  <g fill="none" stroke="#5B5F71" stroke-width="1.8" stroke-linecap="round" stroke-linejoin="round">
    
  <path d="M4 8.5h5l1.4 1.6H20a1.6 1.6 0 0 1 1.6 1.6v6.2A1.6 1.6 0 0 1 20 19.5H6.2A2.2 2.2 0 0 1 4 17.3z" fill="#C9E4DE"/>
  <path d="M4 9V7.6A1.6 1.6 0 0 1 5.6 6h4.2l1.2 1.4" />

  </g>
  
  <g opacity="0.9">
    <path d="M18 6 l1.2-0.4 l0.4-1.2 l0.4 1.2 L21.2 6 l-1.2 0.4 l-0.4 1.2 l-0.4-1.2 z"
      fill="#F7D1DC"/>
  </g>

</svg>