<svg xmlns="http://www.w3.org/2000/svg" width="24" height="24" viewBox="0 0 24 24">
  <rect x="1" y="1" width="22" height="22" rx="6" ry="6" fill="#FDE2E4" />
  <g fill="none" stroke="#5B5F71" stroke-width="1.8" stroke-linecap="round" stroke-linejoin="round">
    
  <path d="M12 19s-5.5-3.2-7.2-6.5C3.7 10 5 7.8 7.3 7.5c1.2-.2 2.5.3 3.4 1.3c.9-1 2.2-1.5 3.4-1.3c2.3.3 3.6 2.5 2.5 5C17.5 15.8 12 19 12 19z" fill="#FDE2E4"/>

  </g>
  
  <g opacity="0.9">
    <path d="M18 6 l1.2-0.4 l0.4-1.2 l0.4 1.2 L21.2 6 l-1.2 0.4 l-0.4 1.2 l-0.4-1.2 z"
      fill="#F7D1DC"/>
  </g>

</svg>