<svg xmlns="http://www.w3.org/2000/svg" width="24" height="24" viewBox="0 0 24 24">
  <rect x="1" y="1" width="22" height="22" rx="6" ry="6" fill="#D1FADF" />
  <g fill="none" stroke="#5B5F71" stroke-width="1.8" stroke-linecap="round" stroke-linejoin="round">
    
  <path d="M7.5 4.5h9a1.5 1.5 0 0 1 1.5 1.5v12a1.5 1.5 0 0 1-1.5 1.5h-9A1.5 1.5 0 0 1 6 18V6A1.5 1.5 0 0 1 7.5 4.5z" fill="#D1FADF"/>
  <path d="M9 6h6M10 18h4" />

  </g>
  
  <g opacity="0.9">
    <path d="M18 6 l1.2-0.4 l0.4-1.2 l0.4 1.2 L21.2 6 l-1.2 0.4 l-0.4 1.2 l-0.4-1.2 z"
      fill="#F7D1DC"/>
  </g>

</svg>